<svg viewBox="0 0 24 24" fill="none" xmlns="http://www.w3.org/2000/svg"><g id="SVGRepo_bgCarrier" stroke-width="0"></g><g id="SVGRepo_tracerCarrier" stroke-linecap="round" stroke-linejoin="round"></g><g id="SVGRepo_iconCarrier"> <path d="M5 19V6.2C5 5.0799 5 4.51984 5.21799 4.09202C5.40973 3.71569 5.71569 3.40973 6.09202 3.21799C6.51984 3 7.0799 3 8.2 3H15.8C16.9201 3 17.4802 3 17.908 3.21799C18.2843 3.40973 18.5903 3.71569 18.782 4.09202C19 4.51984 19 5.0799 19 6.2V17H7C5.89543 17 5 17.8954 5 19ZM5 19C5 20.1046 5.89543 21 7 21H19M18 17V21M14.5 8V7.91667C14.5 6.85812 13.6419 6 12.5833 6H11.5C10.3954 6 9.5 6.89543 9.5 8C9.5 9.10457 10.3954 10 11.5 10H12.5C13.6046 10 14.5 10.8954 14.5 12C14.5 13.1046 13.6046 14 12.5 14H11.4583C10.3768 14 9.5 13.1232 9.5 12.0417V12" stroke="#000000" stroke-width="2" stroke-linecap="round" stroke-linejoin="round"></path> </g></svg>